<svg width="320" height="320" viewBox="0 0 320 320" fill="none" xmlns="http://www.w3.org/2000/svg">
<rect x="30" y="30" width="260" height="260" rx="56" fill="#242424"/>
<rect x="30" y="30" width="260" height="260" rx="56" fill="url(#paint0_linear_201_2)" fill-opacity="0.2" style="mix-blend-mode:soft-light"/>
<rect x="30" y="30" width="260" height="260" rx="56" fill="#232323"/>
<rect x="30" y="30" width="260" height="260" rx="56" fill="url(#paint1_linear_201_2)" fill-opacity="0.32" style="mix-blend-mode:soft-light"/>
<g filter="url(#filter0_diii_201_2)">
<path fill-rule="evenodd" clip-rule="evenodd" d="M197.428 245.729C199.797 246.273 202.279 245.993 204.469 244.937L239.908 227.809C241.734 226.927 243.274 225.544 244.352 223.821C245.43 222.097 246.001 220.102 246 218.066V101.938C246.001 99.9017 245.43 97.9069 244.352 96.183C243.274 94.4592 241.734 93.0765 239.908 92.1943L204.469 75.0668C201.962 73.8552 199.084 73.6679 196.442 74.5445C194.863 75.0766 193.427 75.9706 192.25 77.1559L135.132 140.659L101.771 113.176L98.8504 110.654C97.9721 109.9 96.9252 109.369 95.799 109.109C94.6727 108.849 93.5006 108.866 92.3825 109.16C92.0551 109.232 91.7367 109.341 91.4329 109.484L78.4075 114.977C77.1884 115.483 76.1318 116.317 75.3541 117.388C74.5765 118.459 74.1079 119.725 74 121.046C74 121.226 74 121.406 74 121.587V198.417C74 198.597 74 198.777 74 198.957C74.1079 200.279 74.5765 201.545 75.3541 202.615C76.1318 203.686 77.1884 204.521 78.4075 205.027L91.4329 210.43C91.7367 210.572 92.0551 210.681 92.3825 210.754C93.5006 211.047 94.6727 211.065 95.799 210.804C96.9252 210.544 97.9721 210.014 98.8504 209.259L101.771 206.828L135.132 179.345L192.25 242.848C193.674 244.276 195.468 245.275 197.428 245.729ZM203 123.406L158.585 160.002L203 196.598V123.406ZM95.5 135.274L117.735 160.002L95.5 184.729V135.274Z" fill="url(#paint2_linear_201_2)"/>
<path fill-rule="evenodd" clip-rule="evenodd" d="M197.428 245.729C199.797 246.273 202.279 245.993 204.469 244.937L239.908 227.809C241.734 226.927 243.274 225.544 244.352 223.821C245.43 222.097 246.001 220.102 246 218.066V101.938C246.001 99.9017 245.43 97.9069 244.352 96.183C243.274 94.4592 241.734 93.0765 239.908 92.1943L204.469 75.0668C201.962 73.8552 199.084 73.6679 196.442 74.5445C194.863 75.0766 193.427 75.9706 192.25 77.1559L135.132 140.659L101.771 113.176L98.8504 110.654C97.9721 109.9 96.9252 109.369 95.799 109.109C94.6727 108.849 93.5006 108.866 92.3825 109.16C92.0551 109.232 91.7367 109.341 91.4329 109.484L78.4075 114.977C77.1884 115.483 76.1318 116.317 75.3541 117.388C74.5765 118.459 74.1079 119.725 74 121.046C74 121.226 74 121.406 74 121.587V198.417C74 198.597 74 198.777 74 198.957C74.1079 200.279 74.5765 201.545 75.3541 202.615C76.1318 203.686 77.1884 204.521 78.4075 205.027L91.4329 210.43C91.7367 210.572 92.0551 210.681 92.3825 210.754C93.5006 211.047 94.6727 211.065 95.799 210.804C96.9252 210.544 97.9721 210.014 98.8504 209.259L101.771 206.828L135.132 179.345L192.25 242.848C193.674 244.276 195.468 245.275 197.428 245.729ZM203 123.406L158.585 160.002L203 196.598V123.406ZM95.5 135.274L117.735 160.002L95.5 184.729V135.274Z" fill="url(#paint3_radial_201_2)" fill-opacity="0.8"/>
<path fill-rule="evenodd" clip-rule="evenodd" d="M197.428 245.729C199.797 246.273 202.279 245.993 204.469 244.937L239.908 227.809C241.734 226.927 243.274 225.544 244.352 223.821C245.43 222.097 246.001 220.102 246 218.066V101.938C246.001 99.9017 245.43 97.9069 244.352 96.183C243.274 94.4592 241.734 93.0765 239.908 92.1943L204.469 75.0668C201.962 73.8552 199.084 73.6679 196.442 74.5445C194.863 75.0766 193.427 75.9706 192.25 77.1559L135.132 140.659L101.771 113.176L98.8504 110.654C97.9721 109.9 96.9252 109.369 95.799 109.109C94.6727 108.849 93.5006 108.866 92.3825 109.16C92.0551 109.232 91.7367 109.341 91.4329 109.484L78.4075 114.977C77.1884 115.483 76.1318 116.317 75.3541 117.388C74.5765 118.459 74.1079 119.725 74 121.046C74 121.226 74 121.406 74 121.587V198.417C74 198.597 74 198.777 74 198.957C74.1079 200.279 74.5765 201.545 75.3541 202.615C76.1318 203.686 77.1884 204.521 78.4075 205.027L91.4329 210.43C91.7367 210.572 92.0551 210.681 92.3825 210.754C93.5006 211.047 94.6727 211.065 95.799 210.804C96.9252 210.544 97.9721 210.014 98.8504 209.259L101.771 206.828L135.132 179.345L192.25 242.848C193.674 244.276 195.468 245.275 197.428 245.729ZM203 123.406L158.585 160.002L203 196.598V123.406ZM95.5 135.274L117.735 160.002L95.5 184.729V135.274Z" fill="url(#paint4_radial_201_2)" fill-opacity="0.8"/>
<path fill-rule="evenodd" clip-rule="evenodd" d="M197.428 245.729C199.797 246.273 202.279 245.993 204.469 244.937L239.908 227.809C241.734 226.927 243.274 225.544 244.352 223.821C245.43 222.097 246.001 220.102 246 218.066V101.938C246.001 99.9017 245.43 97.9069 244.352 96.183C243.274 94.4592 241.734 93.0765 239.908 92.1943L204.469 75.0668C201.962 73.8552 199.084 73.6679 196.442 74.5445C194.863 75.0766 193.427 75.9706 192.25 77.1559L135.132 140.659L101.771 113.176L98.8504 110.654C97.9721 109.9 96.9252 109.369 95.799 109.109C94.6727 108.849 93.5006 108.866 92.3825 109.16C92.0551 109.232 91.7367 109.341 91.4329 109.484L78.4075 114.977C77.1884 115.483 76.1318 116.317 75.3541 117.388C74.5765 118.459 74.1079 119.725 74 121.046C74 121.226 74 121.406 74 121.587V198.417C74 198.597 74 198.777 74 198.957C74.1079 200.279 74.5765 201.545 75.3541 202.615C76.1318 203.686 77.1884 204.521 78.4075 205.027L91.4329 210.43C91.7367 210.572 92.0551 210.681 92.3825 210.754C93.5006 211.047 94.6727 211.065 95.799 210.804C96.9252 210.544 97.9721 210.014 98.8504 209.259L101.771 206.828L135.132 179.345L192.25 242.848C193.674 244.276 195.468 245.275 197.428 245.729ZM203 123.406L158.585 160.002L203 196.598V123.406ZM95.5 135.274L117.735 160.002L95.5 184.729V135.274Z" fill="url(#paint5_radial_201_2)" fill-opacity="0.8"/>
</g>
<path d="M76.6436 118.346C77.4148 118.046 78.2582 117.984 79.0645 118.17C79.8706 118.356 80.6032 118.781 81.167 119.389L95.5 135.319V184.684L81.167 200.615C80.6032 201.223 79.8705 201.647 79.0645 201.833C78.2583 202.019 77.4148 201.958 76.6436 201.658C75.8723 201.357 75.2074 200.831 74.7363 200.148C74.2655 199.465 74.009 198.655 74 197.824V122.181C74.0088 121.35 74.2652 120.539 74.7363 119.856C75.2075 119.172 75.8722 118.647 76.6436 118.346ZM77.6973 115.322C77.7738 115.279 77.8515 115.238 77.9297 115.199C77.8515 115.238 77.7738 115.279 77.6973 115.322Z" fill="black" fill-opacity="0.32"/>
<path d="M91.4326 109.574C92.6476 109.049 93.9839 108.871 95.293 109.061C96.6021 109.252 97.8339 109.803 98.8506 110.654L101.771 113.176L203 196.609V238.363C202.997 239.614 202.627 240.836 201.935 241.875C201.243 242.914 200.26 243.725 199.11 244.204C197.961 244.683 196.697 244.81 195.477 244.569C194.256 244.328 193.133 243.729 192.25 242.848L81.167 119.39C80.6031 118.781 79.8707 118.356 79.0645 118.17C78.2583 117.984 77.4148 118.045 76.6436 118.346C75.8722 118.646 75.2075 119.173 74.7363 119.856C74.2654 120.54 74.0089 121.349 74 122.181V121.587C74.0076 120.172 74.43 118.79 75.2139 117.614C75.9977 116.439 77.1081 115.521 78.4072 114.976L91.4326 109.574Z" fill="black" fill-opacity="0.12"/>
<path d="M204.469 244.937C202.467 245.899 200.218 246.215 198.03 245.84C195.842 245.466 193.823 244.421 192.25 242.847C193.133 243.729 194.255 244.328 195.476 244.569C196.697 244.81 197.962 244.683 199.111 244.204C200.26 243.725 201.242 242.914 201.934 241.875C202.626 240.836 202.997 239.614 203 238.363V81.6762C203.004 80.4225 202.639 79.1956 201.949 78.1508C201.26 77.106 200.278 76.29 199.127 75.8062C197.977 75.3223 196.709 75.1923 195.485 75.4325C194.261 75.6727 193.135 76.2724 192.25 77.1557C193.823 75.5823 195.842 74.5368 198.03 74.1627C200.218 73.7887 202.467 74.1044 204.469 75.0666L239.908 92.194C241.734 93.0763 243.274 94.459 244.352 96.1828C245.43 97.9066 246.001 99.9015 246 101.937V218.066C246.001 220.102 245.43 222.097 244.352 223.82C243.274 225.544 241.734 226.927 239.908 227.809L204.469 244.937Z" fill="white" fill-opacity="0.32"/>
<defs>
<filter id="filter0_diii_201_2" x="50" y="66" width="220" height="220" filterUnits="userSpaceOnUse" color-interpolation-filters="sRGB">
<feFlood flood-opacity="0" result="BackgroundImageFix"/>
<feColorMatrix in="SourceAlpha" type="matrix" values="0 0 0 0 0 0 0 0 0 0 0 0 0 0 0 0 0 0 127 0" result="hardAlpha"/>
<feOffset dy="16"/>
<feGaussianBlur stdDeviation="12"/>
<feColorMatrix type="matrix" values="0 0 0 0 0.0980392 0 0 0 0 0.0980392 0 0 0 0 0.172549 0 0 0 0.64 0"/>
<feBlend mode="normal" in2="BackgroundImageFix" result="effect1_dropShadow_201_2"/>
<feBlend mode="normal" in="SourceGraphic" in2="effect1_dropShadow_201_2" result="shape"/>
<feColorMatrix in="SourceAlpha" type="matrix" values="0 0 0 0 0 0 0 0 0 0 0 0 0 0 0 0 0 0 127 0" result="hardAlpha"/>
<feOffset dy="-6.28774"/>
<feGaussianBlur stdDeviation="3.92984"/>
<feComposite in2="hardAlpha" operator="arithmetic" k2="-1" k3="1"/>
<feColorMatrix type="matrix" values="0 0 0 0 0.32 0 0 0 0 0 0 0 0 0 1 0 0 0 0.5 0"/>
<feBlend mode="normal" in2="shape" result="effect2_innerShadow_201_2"/>
<feColorMatrix in="SourceAlpha" type="matrix" values="0 0 0 0 0 0 0 0 0 0 0 0 0 0 0 0 0 0 127 0" result="hardAlpha"/>
<feOffset dy="-4"/>
<feGaussianBlur stdDeviation="2"/>
<feComposite in2="hardAlpha" operator="arithmetic" k2="-1" k3="1"/>
<feColorMatrix type="matrix" values="0 0 0 0 0.975833 0 0 0 0 0.879167 0 0 0 0 1 0 0 0 0.4 0"/>
<feBlend mode="normal" in2="effect2_innerShadow_201_2" result="effect3_innerShadow_201_2"/>
<feColorMatrix in="SourceAlpha" type="matrix" values="0 0 0 0 0 0 0 0 0 0 0 0 0 0 0 0 0 0 127 0" result="hardAlpha"/>
<feOffset dx="0.865107" dy="0.494347"/>
<feGaussianBlur stdDeviation="0.55614"/>
<feComposite in2="hardAlpha" operator="arithmetic" k2="-1" k3="1"/>
<feColorMatrix type="matrix" values="0 0 0 0 1 0 0 0 0 1 0 0 0 0 1 0 0 0 0.15 0"/>
<feBlend mode="normal" in2="effect3_innerShadow_201_2" result="effect4_innerShadow_201_2"/>
</filter>
<linearGradient id="paint0_linear_201_2" x1="160" y1="30" x2="160" y2="290" gradientUnits="userSpaceOnUse">
<stop offset="0.328125" stop-color="white"/>
<stop offset="1" stop-color="#1B1A1A"/>
</linearGradient>
<linearGradient id="paint1_linear_201_2" x1="160" y1="-276" x2="160" y2="290" gradientUnits="userSpaceOnUse">
<stop stop-color="white" stop-opacity="0"/>
<stop offset="0.950495" stop-color="#1B1A1A"/>
</linearGradient>
<linearGradient id="paint2_linear_201_2" x1="246" y1="55.9275" x2="85.5069" y2="260.912" gradientUnits="userSpaceOnUse">
<stop stop-color="#683DDB"/>
<stop offset="0.527788" stop-color="#8C31FF"/>
<stop offset="1" stop-color="#DC02FF"/>
</linearGradient>
<radialGradient id="paint3_radial_201_2" cx="0" cy="0" r="1" gradientTransform="matrix(-22.5932 209.391 -350.12 -27.6212 120.644 36.6087)" gradientUnits="userSpaceOnUse">
<stop stop-color="#52B6FF"/>
<stop offset="1" stop-color="#8F41EE" stop-opacity="0"/>
</radialGradient>
<radialGradient id="paint4_radial_201_2" cx="0" cy="0" r="1" gradientTransform="matrix(40.0847 76.029 -231.776 89.346 119.915 83.971)" gradientUnits="userSpaceOnUse">
<stop stop-color="#9DD6FF"/>
<stop offset="1" stop-color="#8F41EE" stop-opacity="0"/>
</radialGradient>
<radialGradient id="paint5_radial_201_2" cx="0" cy="0" r="1" gradientTransform="matrix(-118.068 84.7536 -141.715 -144.343 327.627 205.493)" gradientUnits="userSpaceOnUse">
<stop stop-color="#5263FF"/>
<stop offset="1" stop-color="#8F41EE" stop-opacity="0"/>
</radialGradient>
</defs>
</svg>
